<svg width="520" height="140" viewBox="0 0 520 140" fill="none" xmlns="http://www.w3.org/2000/svg">
  <defs>
    <linearGradient id="silver" x1="40" y1="20" x2="250" y2="120" gradientUnits="userSpaceOnUse">
      <stop stop-color="#FFFFFF"/>
      <stop offset="0.3" stop-color="#ECECEC"/>
      <stop offset="0.7" stop-color="#B8B8B8"/>
      <stop offset="1" stop-color="#8D8D8D"/>
    </linearGradient>
    <linearGradient id="red" x1="276" y1="24" x2="480" y2="122" gradientUnits="userSpaceOnUse">
      <stop stop-color="#FF5A4D"/>
      <stop offset="0.55" stop-color="#FF1F1F"/>
      <stop offset="1" stop-color="#B80013"/>
    </linearGradient>
    <filter id="softShadow" x="0" y="0" width="520" height="140" filterUnits="userSpaceOnUse">
      <feDropShadow dx="0" dy="7" stdDeviation="7" flood-color="#000000" flood-opacity="0.36"/>
    </filter>
  </defs>
  <g filter="url(#softShadow)">
    <path d="M43 96L74 38H131L114 61H84L72 82L66 94H95L89 107H39L43 96Z" fill="url(#silver)"/>
    <path d="M87 38H147L130 61H104L97 73H121L109 96H67L87 38Z" fill="url(#silver)"/>
    <path d="M141 38H188L169 61H150L145 68H170L157 88H132L124 96H98L141 38Z" fill="url(#silver)"/>
    <path d="M188 38H236L221 58H201L196 65H220L207 84H183L177 96H150L188 38Z" fill="url(#silver)"/>
    <path d="M238 38H287L270 61H247L241 68H266L253 87H228L220 107H194L238 38Z" fill="url(#silver)"/>
    <path d="M285 38H339L323 58H301L295 67H321L308 88H282L274 107H249L285 38Z" fill="url(#silver)"/>
    <path d="M333 38H391L373 61H343L338 69H366L353 89H327L320 107H292L333 38Z" fill="url(#red)"/>
    <path d="M389 38H433L417 57H399L393 66H414L401 86H378L372 107H345L389 38Z" fill="url(#red)"/>
    <path d="M434 38H477L460 58H443L436 67H457L444 87H421L414 107H388L434 38Z" fill="url(#red)"/>
    <path d="M477 38H499L491 49H483L476 58H489L477 74H461L456 82H441L477 38Z" fill="url(#red)"/>
    <path d="M82 110H448" stroke="#E81212" stroke-width="3.5" stroke-linecap="round"/>
    <path d="M263 110L252 120H274L263 110Z" fill="#E81212"/>
  </g>
</svg>